<svg xmlns="http://www.w3.org/2000/svg" xmlns:xlink="http://www.w3.org/1999/xlink" viewBox="0 0 3200 2000.17"><defs><style>.cls-1{fill:url(#linear-gradient);}.cls-2{mask:url(#mask);filter:url(#luminosity-noclip-5);}.cls-10,.cls-3,.cls-6,.cls-8{mix-blend-mode:multiply;}.cls-3{fill:url(#linear-gradient-2);}.cls-4{fill:url(#linear-gradient-3);}.cls-5{mask:url(#mask-2);filter:url(#luminosity-noclip-6);}.cls-6{fill:url(#linear-gradient-4);}.cls-7{mask:url(#mask-3);filter:url(#luminosity-noclip-7);}.cls-8{fill:url(#linear-gradient-5);}.cls-9{mask:url(#mask-4);filter:url(#luminosity-noclip-8);}.cls-10{fill:url(#linear-gradient-6);}.cls-11{fill:url(#linear-gradient-7);}.cls-12{fill:url(#linear-gradient-8);}.cls-13,.cls-15{fill:#fff;}.cls-13,.cls-14,.cls-41{opacity:0.2;}.cls-16{opacity:0.04;}.cls-17{fill:url(#linear-gradient-9);}.cls-18,.cls-25{opacity:0.1;}.cls-19{fill:url(#linear-gradient-10);}.cls-20{fill:url(#linear-gradient-11);}.cls-21{fill:url(#linear-gradient-12);}.cls-22{mask:url(#mask-5);}.cls-23{fill:#542753;}.cls-24{fill:url(#linear-gradient-13);}.cls-25,.cls-41{fill:#030108;}.cls-26{mask:url(#mask-6);}.cls-27,.cls-36,.cls-38,.cls-40,.cls-80{opacity:0.5;}.cls-27{fill:url(#linear-gradient-14);}.cls-28{fill:url(#linear-gradient-15);}.cls-29{fill:url(#linear-gradient-16);}.cls-30{fill:url(#linear-gradient-17);}.cls-31{fill:url(#linear-gradient-18);}.cls-32{fill:url(#linear-gradient-19);}.cls-33{fill:url(#linear-gradient-20);}.cls-34{fill:url(#linear-gradient-21);}.cls-35{mask:url(#mask-7);}.cls-36{fill:url(#linear-gradient-22);}.cls-37{mask:url(#mask-8);}.cls-38{fill:url(#linear-gradient-23);}.cls-39{mask:url(#mask-9);}.cls-40{fill:url(#linear-gradient-24);}.cls-42{fill:url(#linear-gradient-25);}.cls-43{fill:url(#linear-gradient-26);}.cls-44{mask:url(#mask-10);}.cls-45{fill:url(#linear-gradient-27);}.cls-46{fill:url(#linear-gradient-28);}.cls-47{fill:url(#linear-gradient-29);}.cls-48{fill:url(#linear-gradient-30);}.cls-49{fill:url(#linear-gradient-31);}.cls-50{fill:url(#linear-gradient-32);}.cls-51{fill:url(#linear-gradient-33);}.cls-52{fill:url(#linear-gradient-34);}.cls-53{fill:url(#linear-gradient-35);}.cls-54{fill:url(#linear-gradient-36);}.cls-55{fill:url(#linear-gradient-37);}.cls-56{fill:#2c269a;}.cls-57{fill:url(#linear-gradient-38);}.cls-58{fill:url(#linear-gradient-39);}.cls-59{fill:url(#linear-gradient-40);}.cls-60{fill:url(#linear-gradient-41);}.cls-61{fill:url(#linear-gradient-42);}.cls-62{fill:url(#linear-gradient-43);}.cls-63{fill:url(#linear-gradient-44);}.cls-64{fill:url(#linear-gradient-45);}.cls-65{fill:url(#linear-gradient-46);}.cls-66{fill:url(#linear-gradient-47);}.cls-67{fill:url(#linear-gradient-48);}.cls-68{fill:url(#linear-gradient-49);}.cls-69{mask:url(#mask-11);}.cls-70{fill:url(#linear-gradient-50);}.cls-71{fill:#1e1d61;}.cls-72{fill:url(#linear-gradient-51);}.cls-73{fill:url(#linear-gradient-52);}.cls-74{fill:url(#linear-gradient-53);}.cls-75{fill:url(#linear-gradient-54);}.cls-76{fill:url(#linear-gradient-55);}.cls-77{fill:url(#linear-gradient-56);}.cls-78{fill:url(#linear-gradient-57);}.cls-79{fill:url(#linear-gradient-58);}.cls-80{fill:url(#linear-gradient-59);}.cls-81{filter:url(#luminosity-noclip-4);}.cls-82{filter:url(#luminosity-noclip-3);}.cls-83{filter:url(#luminosity-noclip-2);}.cls-84{filter:url(#luminosity-noclip);}</style><linearGradient id="linear-gradient" x1="1599.94" y1="1999.25" x2="1599.94" y2="1142.5" gradientUnits="userSpaceOnUse"><stop offset="0.49"/><stop offset="0.56" stop-color="#040404"/><stop offset="0.64" stop-color="#111"/><stop offset="0.72" stop-color="#262627"/><stop offset="0.8" stop-color="#434345"/><stop offset="0.88" stop-color="#68696c"/><stop offset="0.89" stop-color="#6d6e71"/></linearGradient><filter id="luminosity-noclip" x="773.43" y="-9192" width="530.83" height="32766" filterUnits="userSpaceOnUse" color-interpolation-filters="sRGB"><feFlood flood-color="#fff" result="bg"/><feBlend in="SourceGraphic" in2="bg"/></filter><mask id="mask" x="773.43" y="-9192" width="530.83" height="32766" maskUnits="userSpaceOnUse"><g class="cls-84"/></mask><linearGradient id="linear-gradient-2" x1="803.78" y1="-216.6" x2="1137.78" y2="333.4" gradientTransform="matrix(1, 0, 0, -1, 0, 1460.5)" gradientUnits="userSpaceOnUse"><stop offset="0" stop-color="#fff"/><stop offset="0.19" stop-color="#fff"/><stop offset="0.34" stop-color="#aeaeae"/><stop offset="0.49" stop-color="#646464"/><stop offset="0.62" stop-color="#2e2e2e"/><stop offset="0.71" stop-color="#0d0d0d"/><stop offset="0.76"/></linearGradient><linearGradient id="linear-gradient-3" x1="1599.94" y1="1139.25" x2="1599.94" y2="968.91" gradientUnits="userSpaceOnUse"><stop offset="0.23" stop-color="#fff"/><stop offset="0.3" stop-color="#e3e3e3"/><stop offset="0.55" stop-color="#838383"/><stop offset="0.75" stop-color="#3c3c3c"/><stop offset="0.89" stop-color="#111"/><stop offset="0.97"/></linearGradient><filter id="luminosity-noclip-2" x="409.64" y="-9192" width="346.06" height="32766" filterUnits="userSpaceOnUse" color-interpolation-filters="sRGB"><feFlood flood-color="#fff" result="bg"/><feBlend in="SourceGraphic" in2="bg"/></filter><mask id="mask-2" x="409.64" y="-9192" width="346.06" height="32766" maskUnits="userSpaceOnUse"><g class="cls-83"/></mask><linearGradient id="linear-gradient-4" x1="326.22" y1="-89.95" x2="794.27" y2="372.1" xlink:href="#linear-gradient-2"/><filter id="luminosity-noclip-3" x="1441" y="-9192" width="402" height="32766" filterUnits="userSpaceOnUse" color-interpolation-filters="sRGB"><feFlood flood-color="#fff" result="bg"/><feBlend in="SourceGraphic" in2="bg"/></filter><mask id="mask-3" x="1441" y="-9192" width="402" height="32766" maskUnits="userSpaceOnUse"><g class="cls-82"/></mask><linearGradient id="linear-gradient-5" x1="1444.51" y1="-167.95" x2="1780.54" y2="330.1" xlink:href="#linear-gradient-2"/><filter id="luminosity-noclip-4" x="1931.57" y="-9192" width="415.43" height="32766" filterUnits="userSpaceOnUse" color-interpolation-filters="sRGB"><feFlood flood-color="#fff" result="bg"/><feBlend in="SourceGraphic" in2="bg"/></filter><mask id="mask-4" x="1931.57" y="-9192" width="415.43" height="32766" maskUnits="userSpaceOnUse"><g class="cls-81"/></mask><linearGradient id="linear-gradient-6" x1="1971.3" y1="-330.49" x2="2169.3" y2="339.51" xlink:href="#linear-gradient-2"/><linearGradient id="linear-gradient-7" x1="732.43" y1="1677.33" x2="723.1" y2="1818.66" gradientUnits="userSpaceOnUse"><stop offset="0.08" stop-color="#f1f2f2"/><stop offset="0.09" stop-color="#eff0f0"/><stop offset="0.42" stop-color="#989798"/><stop offset="0.7" stop-color="#595657"/><stop offset="0.9" stop-color="#322e2f"/><stop offset="1" stop-color="#231f20"/></linearGradient><linearGradient id="linear-gradient-8" x1="2.47" y1="2002.79" x2="3197.4" y2="-3.04" gradientUnits="userSpaceOnUse"><stop offset="0" stop-color="#2c269a"/><stop offset="0.07" stop-color="#46319a"/><stop offset="0.16" stop-color="#653e9b"/><stop offset="0.25" stop-color="#7a479b"/><stop offset="0.34" stop-color="#884c9b"/><stop offset="0.42" stop-color="#8c4e9b"/><stop offset="0.51" stop-color="#975995"/><stop offset="0.67" stop-color="#b47886"/><stop offset="0.89" stop-color="#e3a86d"/><stop offset="1" stop-color="#fec55e"/></linearGradient><linearGradient id="linear-gradient-9" x1="3.67" y1="1555.57" x2="3183.67" y2="1583.57" gradientUnits="userSpaceOnUse"><stop offset="0" stop-color="#4940bf"/><stop offset="0.14" stop-color="#524ac2"/><stop offset="0.37" stop-color="#6b64cb"/><stop offset="0.55" stop-color="#837dd3"/><stop offset="1" stop-color="#4940bf"/></linearGradient><linearGradient id="linear-gradient-10" x1="721.33" y1="1569.63" x2="2517.97" y2="1569.63" gradientUnits="userSpaceOnUse"><stop offset="0.51" stop-color="#fec55e"/><stop offset="0.53" stop-color="#e4b165"/><stop offset="0.56" stop-color="#b99172"/><stop offset="0.61" stop-color="#93747d"/><stop offset="0.65" stop-color="#735c86"/><stop offset="0.7" stop-color="#59488d"/><stop offset="0.75" stop-color="#453993"/><stop offset="0.81" stop-color="#372e97"/><stop offset="0.88" stop-color="#2e2899"/><stop offset="1" stop-color="#2c269a"/></linearGradient><linearGradient id="linear-gradient-11" x1="0.66" y1="1255.51" x2="1263.75" y2="1255.51" gradientUnits="userSpaceOnUse"><stop offset="0" stop-color="#2c269a"/><stop offset="0.08" stop-color="#5251ae"/><stop offset="0.17" stop-color="#7478c0"/><stop offset="0.27" stop-color="#9198d0"/><stop offset="0.37" stop-color="#a8b3dc"/><stop offset="0.48" stop-color="#bac7e6"/><stop offset="0.61" stop-color="#c7d6ed"/><stop offset="0.76" stop-color="#cfdef1"/><stop offset="1" stop-color="#d1e1f2"/></linearGradient><linearGradient id="linear-gradient-12" x1="0.66" y1="1627.85" x2="626.75" y2="1627.85" gradientUnits="userSpaceOnUse"><stop offset="0" stop-color="#2c269a"/><stop offset="0.15" stop-color="#624f8a"/><stop offset="0.3" stop-color="#91737d"/><stop offset="0.45" stop-color="#b99072"/><stop offset="0.59" stop-color="#d7a769"/><stop offset="0.74" stop-color="#edb863"/><stop offset="0.87" stop-color="#fac25f"/><stop offset="1" stop-color="#fec55e"/></linearGradient><mask id="mask-5" x="0.25" y="1142.5" width="3199.38" height="856.75" maskUnits="userSpaceOnUse"><rect class="cls-1" x="0.25" y="1142.5" width="3199.38" height="856.75"/></mask><linearGradient id="linear-gradient-13" x1="2592.3" y1="-565.65" x2="2420.3" y2="320.35" gradientTransform="matrix(1, 0, 0, -1, 0, 1460.5)" gradientUnits="userSpaceOnUse"><stop offset="0" stop-color="#8c4e9b"/><stop offset="0.38" stop-color="#6b3770"/><stop offset="0.62" stop-color="#542753"/></linearGradient><filter id="luminosity-noclip-5" x="773.43" y="1142.5" width="530.83" height="419.65" filterUnits="userSpaceOnUse" color-interpolation-filters="sRGB"><feFlood flood-color="#fff" result="bg"/><feBlend in="SourceGraphic" in2="bg"/></filter><mask id="mask-6" x="773.43" y="1142.5" width="530.83" height="419.65" maskUnits="userSpaceOnUse"><g class="cls-2"><path class="cls-3" d="M1291,1375c20.23,35.57,15.83,64.57-3.22,88.17L1233,1381c-122.49-7.42-241.52,157.36-258,181.15h0L931,1515l12-48-70-34,40-94L773.43,1142.5h69.41L875,1191S1200,1215,1291,1375Z"/></g></mask><linearGradient id="linear-gradient-14" x1="803.78" y1="-216.6" x2="1137.78" y2="333.4" gradientTransform="matrix(1, 0, 0, -1, 0, 1460.5)" gradientUnits="userSpaceOnUse"><stop offset="0" stop-color="#4940bf"/><stop offset="0.06" stop-color="#6a62cb"/><stop offset="0.15" stop-color="#948ed9"/><stop offset="0.19" stop-color="#a49fdf"/><stop offset="0.45" stop-color="#d4d1f0"/><stop offset="0.65" stop-color="#f3f2fb"/><stop offset="0.76" stop-color="#fff"/></linearGradient><linearGradient id="linear-gradient-15" x1="0.25" y1="94.75" x2="617" y2="94.75" gradientTransform="matrix(1, 0, 0, -1, 0, 1460.5)" gradientUnits="userSpaceOnUse"><stop offset="0.4" stop-color="#1e1d61"/><stop offset="0.86" stop-color="#28248c"/><stop offset="1" stop-color="#2c269a"/></linearGradient><linearGradient id="linear-gradient-16" x1="661" y1="106.75" x2="974.95" y2="106.75" xlink:href="#linear-gradient-15"/><linearGradient id="linear-gradient-17" x1="842.84" y1="52.81" x2="1465" y2="52.81" xlink:href="#linear-gradient-15"/><linearGradient id="linear-gradient-18" x1="1441" y1="168.25" x2="1843" y2="168.25" xlink:href="#linear-gradient-15"/><linearGradient id="linear-gradient-19" x1="1757.52" y1="295.13" x2="1921.52" y2="-404.87" gradientTransform="matrix(1, 0, 0, -1, 0, 1460.5)" gradientUnits="userSpaceOnUse"><stop offset="0" stop-color="#1e1d61"/><stop offset="0.76" stop-color="#28248c"/><stop offset="1" stop-color="#2c269a"/></linearGradient><linearGradient id="linear-gradient-20" x1="2397.85" y1="-466.27" x2="2796.44" y2="357.73" gradientTransform="matrix(1, 0, 0, -1, 0, 1460.5)" gradientUnits="userSpaceOnUse"><stop offset="0" stop-color="#fec55e"/><stop offset="0.14" stop-color="#d89d72"/><stop offset="0.35" stop-color="#a16490"/><stop offset="0.45" stop-color="#8c4e9b"/><stop offset="0.46" stop-color="#8a4d99"/><stop offset="0.66" stop-color="#6d3873"/><stop offset="0.81" stop-color="#5b2c5c"/><stop offset="0.91" stop-color="#542753"/></linearGradient><linearGradient id="linear-gradient-21" x1="3040.17" y1="-78.18" x2="3289.19" y2="341.86" gradientTransform="matrix(1, 0, 0, -1, 0, 1460.5)" gradientUnits="userSpaceOnUse"><stop offset="0.32" stop-color="#542753"/><stop offset="0.58" stop-color="#6b3770"/><stop offset="1" stop-color="#8c4e9b"/></linearGradient><filter id="luminosity-noclip-6" x="409.64" y="1142.5" width="346.06" height="446.5" filterUnits="userSpaceOnUse" color-interpolation-filters="sRGB"><feFlood flood-color="#fff" result="bg"/><feBlend in="SourceGraphic" in2="bg"/></filter><mask id="mask-7" x="409.64" y="1142.5" width="346.06" height="446.5" maskUnits="userSpaceOnUse"><g class="cls-5"><polygon class="cls-6" points="617 1589 487 1481 541 1399 431 1281.88 409.64 1142.5 755.7 1142.5 661 1455 617 1589"/></g></mask><linearGradient id="linear-gradient-22" x1="326.22" y1="-89.95" x2="794.27" y2="372.1" xlink:href="#linear-gradient-14"/><filter id="luminosity-noclip-7" x="1441" y="1142.5" width="402" height="534.5" filterUnits="userSpaceOnUse" color-interpolation-filters="sRGB"><feFlood flood-color="#fff" result="bg"/><feBlend in="SourceGraphic" in2="bg"/></filter><mask id="mask-8" x="1441" y="1142.5" width="402" height="534.5" maskUnits="userSpaceOnUse"><g class="cls-7"><polygon class="cls-8" points="1541.47 1612.58 1469 1677 1465 1543 1441 1442 1718 1142.5 1843 1142.5 1649 1517 1541.47 1612.58"/></g></mask><linearGradient id="linear-gradient-23" x1="1444.51" y1="-167.95" x2="1780.54" y2="330.1" xlink:href="#linear-gradient-14"/><filter id="luminosity-noclip-8" x="1931.57" y="1142.5" width="415.43" height="718.5" filterUnits="userSpaceOnUse" color-interpolation-filters="sRGB"><feFlood flood-color="#fff" result="bg"/><feBlend in="SourceGraphic" in2="bg"/></filter><mask id="mask-9" x="1931.57" y="1142.5" width="415.43" height="718.5" maskUnits="userSpaceOnUse"><g class="cls-9"><polygon class="cls-10" points="2021 1861 2165 1737 2231 1545 2347 1302.57 2309 1142.5 1931.57 1142.5 1957 1589 2057 1629 2021 1861"/></g></mask><linearGradient id="linear-gradient-24" x1="1971.3" y1="-330.49" x2="2169.3" y2="339.51" xlink:href="#linear-gradient-14"/><linearGradient id="linear-gradient-25" x1="808.94" y1="1596.13" x2="706.94" y2="1722.8" gradientUnits="userSpaceOnUse"><stop offset="0" stop-color="#4940bf"/><stop offset="0.48" stop-color="#353094"/><stop offset="1" stop-color="#1e1d61"/></linearGradient><linearGradient id="linear-gradient-26" x1="654.7" y1="1744.5" x2="844.94" y2="1610.09" gradientTransform="matrix(1, -0.08, 0.08, 1, -135.92, 59.09)" gradientUnits="userSpaceOnUse"><stop offset="0" stop-color="#030108"/><stop offset="0.16" stop-color="#080519"/><stop offset="0.48" stop-color="#141045"/><stop offset="0.91" stop-color="#28228b"/><stop offset="1" stop-color="#2c269a"/></linearGradient><mask id="mask-10" x="561.67" y="1672.87" width="328" height="213.88" maskUnits="userSpaceOnUse"><rect class="cls-11" x="561.67" y="1672.87" width="328" height="213.88"/></mask><linearGradient id="linear-gradient-27" x1="663.05" y1="1461.49" x2="765.23" y2="1683.54" gradientTransform="matrix(0.97, 0.26, 0.26, -0.97, -385.36, 3076.62)" xlink:href="#linear-gradient-25"/><linearGradient id="linear-gradient-28" x1="626.73" y1="1801.29" x2="875.56" y2="1625.49" gradientTransform="matrix(1, 0, 0, 1, 0, 0)" xlink:href="#linear-gradient-26"/><linearGradient id="linear-gradient-29" x1="313.57" y1="1942.64" x2="-48.43" y2="1703.64" xlink:href="#linear-gradient-25"/><linearGradient id="linear-gradient-30" x1="0" y1="1922.98" x2="494.65" y2="1922.98" gradientTransform="matrix(1, 0, 0, 1, 0, 0)" xlink:href="#linear-gradient-26"/><linearGradient id="linear-gradient-31" x1="3027.91" y1="2213.87" x2="1911.91" y2="1385.87" gradientUnits="userSpaceOnUse"><stop offset="0" stop-color="#1e1d61"/><stop offset="0.24" stop-color="#2c2880"/><stop offset="0.56" stop-color="#3c35a2"/><stop offset="0.83" stop-color="#453db7"/><stop offset="1" stop-color="#4940bf"/></linearGradient><linearGradient id="linear-gradient-32" x1="1119.52" y1="1569.63" x2="3199.63" y2="1569.63" gradientUnits="userSpaceOnUse"><stop offset="0" stop-color="#2c269a"/><stop offset="0.12" stop-color="#322ca2"/><stop offset="0.49" stop-color="#433bb7"/><stop offset="0.74" stop-color="#4940bf"/></linearGradient><linearGradient id="linear-gradient-33" x1="1119.52" y1="1569.63" x2="2692.95" y2="1569.63" gradientUnits="userSpaceOnUse"><stop offset="0.26" stop-color="#2c269a"/><stop offset="0.51" stop-color="#322ba2"/><stop offset="0.88" stop-color="#433ab7"/><stop offset="1" stop-color="#4940bf"/></linearGradient><linearGradient id="linear-gradient-34" x1="1119.52" y1="1569.63" x2="2692.95" y2="1569.63" xlink:href="#linear-gradient-10"/><linearGradient id="linear-gradient-35" x1="1091.52" y1="1569.63" x2="2664.95" y2="1569.63" gradientUnits="userSpaceOnUse"><stop offset="0" stop-color="#fec55e"/><stop offset="0.26" stop-color="#fcc35f"/><stop offset="0.4" stop-color="#f3bd61"/><stop offset="0.52" stop-color="#e5b265"/><stop offset="0.62" stop-color="#d2a36b"/><stop offset="0.71" stop-color="#b89072"/><stop offset="0.8" stop-color="#98787b"/><stop offset="0.88" stop-color="#735c86"/><stop offset="0.96" stop-color="#493c92"/><stop offset="1" stop-color="#2c269a"/></linearGradient><linearGradient id="linear-gradient-36" x1="1069.52" y1="1569.63" x2="2642.95" y2="1569.63" xlink:href="#linear-gradient-35"/><linearGradient id="linear-gradient-37" x1="1043.52" y1="1569.63" x2="2616.95" y2="1569.63" xlink:href="#linear-gradient-35"/><linearGradient id="linear-gradient-38" x1="2592.3" y1="255.6" x2="2420.3" y2="1141.6" gradientTransform="matrix(1, 0, 0, 1, 0, 0)" xlink:href="#linear-gradient-19"/><linearGradient id="linear-gradient-39" x1="803.78" y1="604.65" x2="1137.78" y2="1154.65" gradientUnits="userSpaceOnUse"><stop offset="0" stop-color="#fec55e"/><stop offset="0.26" stop-color="#b57985"/><stop offset="0.42" stop-color="#8c4e9b"/><stop offset="1" stop-color="#2c269a"/></linearGradient><linearGradient id="linear-gradient-40" y1="916" y2="916" gradientTransform="matrix(1, 0, 0, 1, 0, 0)" xlink:href="#linear-gradient-15"/><linearGradient id="linear-gradient-41" x1="661" y1="928" x2="974.95" y2="928" gradientTransform="matrix(1, 0, 0, 1, 0, 0)" xlink:href="#linear-gradient-19"/><linearGradient id="linear-gradient-42" x1="842.84" y1="874.06" x2="1465" y2="874.06" gradientTransform="matrix(1, 0, 0, 1, 0, 0)" xlink:href="#linear-gradient-19"/><linearGradient id="linear-gradient-43" x1="1441" y1="989.5" x2="1843" y2="989.5" gradientTransform="matrix(1, 0, 0, 1, 0, 0)" xlink:href="#linear-gradient-19"/><linearGradient id="linear-gradient-44" x1="1757.52" y1="1116.38" x2="1921.52" y2="416.38" gradientTransform="matrix(1, 0, 0, 1, 0, 0)" xlink:href="#linear-gradient-19"/><linearGradient id="linear-gradient-45" x1="2397.85" y1="354.98" x2="2796.44" y2="1178.98" xlink:href="#linear-gradient-39"/><linearGradient id="linear-gradient-46" x1="3040.17" y1="743.07" x2="3289.19" y2="1163.11" gradientTransform="matrix(1, 0, 0, 1, 0, 0)" xlink:href="#linear-gradient-19"/><linearGradient id="linear-gradient-47" x1="326.22" y1="731.3" x2="794.27" y2="1193.35" xlink:href="#linear-gradient-39"/><linearGradient id="linear-gradient-48" x1="1444.51" y1="653.3" x2="1780.54" y2="1151.35" xlink:href="#linear-gradient-39"/><linearGradient id="linear-gradient-49" x1="1971.3" y1="490.76" x2="2169.3" y2="1160.76" xlink:href="#linear-gradient-39"/><mask id="mask-11" x="0.25" y="968.91" width="3199.38" height="170.34" maskUnits="userSpaceOnUse"><rect class="cls-4" x="0.25" y="968.91" width="3199.38" height="170.34"/></mask><linearGradient id="linear-gradient-50" x1="1599.94" y1="1139.25" x2="1599.94" y2="968.91" gradientUnits="userSpaceOnUse"><stop offset="0.74" stop-color="#4940bf"/><stop offset="0.78" stop-color="#4f46c1"/><stop offset="0.85" stop-color="#6059c7"/><stop offset="0.92" stop-color="#7d76d1"/><stop offset="1" stop-color="#a49fdf"/></linearGradient><linearGradient id="linear-gradient-51" x1="2586.76" y1="1193.58" x2="2586.76" y2="1068.39" gradientUnits="userSpaceOnUse"><stop offset="0" stop-color="#1e1d61"/><stop offset="0.28" stop-color="#25217d"/><stop offset="0.55" stop-color="#2a2592"/><stop offset="0.74" stop-color="#2c269a"/></linearGradient><linearGradient id="linear-gradient-52" x1="2653.84" y1="1195.69" x2="2653.84" y2="1102.08" gradientUnits="userSpaceOnUse"><stop offset="0.09" stop-color="#542753"/><stop offset="0.14" stop-color="#5b2851"/><stop offset="0.54" stop-color="#963443"/><stop offset="0.84" stop-color="#bb3b39"/><stop offset="1" stop-color="#c93e36"/></linearGradient><linearGradient id="linear-gradient-53" x1="2477.89" y1="1193.58" x2="2477.89" y2="1114.48" xlink:href="#linear-gradient-51"/><linearGradient id="linear-gradient-54" x1="2529.01" y1="1164.53" x2="2559.14" y2="1164.53" gradientUnits="userSpaceOnUse"><stop offset="0" stop-color="#1e1d61"/><stop offset="0.26" stop-color="#1f1e65"/><stop offset="0.53" stop-color="#222072"/><stop offset="0.81" stop-color="#272387"/><stop offset="1" stop-color="#2c269a"/></linearGradient><linearGradient id="linear-gradient-55" x1="2769.65" y1="1192.57" x2="2769.65" y2="1087.1" xlink:href="#linear-gradient-51"/><linearGradient id="linear-gradient-56" x1="2872.96" y1="1192.57" x2="2872.96" y2="1113.47" xlink:href="#linear-gradient-52"/><linearGradient id="linear-gradient-57" x1="2970.03" y1="1192.57" x2="2970.03" y2="1082.37" xlink:href="#linear-gradient-51"/><linearGradient id="linear-gradient-58" x1="3064.62" y1="1194.34" x2="3064.62" y2="1115.67" xlink:href="#linear-gradient-52"/><linearGradient id="linear-gradient-59" x1="1744.07" y1="1141.42" x2="1800.02" y2="1226.42" xlink:href="#linear-gradient-39"/></defs><g id="Bg"><rect class="cls-12" x="0.25" y="0.5" width="3199.38" height="1998.75"/></g><g id="Graphics"><g id="Layer_9" data-name="Layer 9"><path class="cls-13" d="M1944.85,440.25c-3.54,1.19-9.21.5-13.76.5H1751.74c-7.16,0-14.32-.1-21.48,0-6.8.09-12.55,2.66-16.62-4s-2.42-17,1.28-23.25a25.81,25.81,0,0,1,22.73-12.39c-1.09-3.06,0-6.56,2-9.15s4.72-4.45,7.42-6.26c15.79-10.57,26-14.41,45.35-13.12,8.66.58,21.15-1.87,28.1,5,5.78,5.69,5.8,14.4,16.67,14.24,4.83-.08,9.33-2.41,14.08-3.3,12.76-2.38,26.46,7.71,28,20.61,12.21-3.65,25.37-5,37.73-1.93s23.85,11,29.45,22.47C1949.63,436.32,1948.2,439.12,1944.85,440.25Z"/><g class="cls-14"><path class="cls-15" d="M1258.39,796.17c-26.87,0-53.77.07-80.62,1.26-3.61.16-8.52-.83-8.55-4.43l10.61-5.2,4.1-2c8.22-4,17.82-8.12,26.18-4.37,12.75-9,26.49-18.39,42.1-18.86a13.19,13.19,0,0,1,6.79,1.23c9.55,5.34,2.21,24.59-.5,32.38Z"/></g><path class="cls-13" d="M2402.49,333c7-.73-7.86-22.88-10.06-24.45-9-6.42-20.77-5.18-30.1.14,1.37-10.27-5.48-21-15.36-24.14-7.83-2.47-16.37-.43-24,2.55a100.11,100.11,0,0,0-32.47,20.65c-.19-12.66-2.43-24.72-17-26.92-10.58-1.59-20.37,1.82-28.67,8s-17.47,10.53-24.88,17.81c-3.29-3.06-8.06-4.17-12.52-3.74a32.3,32.3,0,0,0-12.6,4.47c-5.18,2.93-11.29,11.43-16.33,13.13-5.29,1.79-11-4.27-17-.59-7.34,4.49-3.59,14.51,4,15.29,3.4.35,8.49-1.75,12.39-1.8,7.78-.12,15.58,0,23.37,0h197Z"/><path class="cls-13" d="M1575,478.93c5.8-.6-6.48-18.88-8.3-20.18-7.43-5.29-17.14-4.27-24.84.12A19,19,0,0,0,1529.14,439c-6.46-2-13.51-.35-19.81,2.11a82.57,82.57,0,0,0-26.8,17c-.15-10.44-2-20.4-14-22.21-8.73-1.31-16.81,1.5-23.66,6.63s-14.41,8.7-20.53,14.7a13.38,13.38,0,0,0-10.33-3.09,26.68,26.68,0,0,0-10.4,3.7c-4.27,2.42-9.31,9.43-13.47,10.83-4.37,1.47-9-3.52-14-.49-6.06,3.71-3,12,3.32,12.62,2.8.29,7-1.44,10.22-1.49,6.42-.1,12.86,0,19.28,0h162.59Z"/><g class="cls-14"><path class="cls-15" d="M1970.31,503.32c-11.31.13-22.63.64-33.8-1-14.41-2.15-28.07-7.85-42.39-10.59s-30.41-2.05-41.71,7.16c-29-10.7-64.81,2.61-79.79,29.63-14.75-22.92-48.58-27.8-73-15.74s-40.28,37-49,62.78c-21.81-48-94-49.7-111.61,3.06-3.91-7.87-14.82-10-23-6.85s-14.35,10-20.13,16.59c-3-17.68-24.31-27.49-41.86-23.82s-31.45,16.94-42.73,30.88c-4.8-17.23-24.57-27.29-42.34-25.22S1335.72,584,1324.62,598c-4.94,6.24-9.35,13.12-15.82,17.75-9,6.42-20.61,7.57-31.63,8.38q-40.1,2.94-80.3,3.7c-19.8.37-45.61-4.52-63.46,4.73C1157.09,652.85,1188,659.44,1218,664c51.5,7.9,105.09,6.72,156.12,15.77,20.83,3.69,38.77,19.65,57.7,29.93a411.48,411.48,0,0,0,65,28.88c25.09,8.44,51.36,13.86,77.85,14.84,13.74.5,27.81-2.93,41.28-2.29,12.6.6,24.31,6.49,37.09,9,36.81,7.36,75,.21,111-10.43,32-9.44,64.29-23.12,89.52-45.37,21-18.53,35.15-43.24,55.15-62.58a741.35,741.35,0,0,1,61.28-53.15c21.18-16.47,41.29-40.65,36.84-67.12-1-6-3.62-12.16-8.86-15.22-3.14-1.82-6.86-2.32-10.48-2.61C1981.83,503.27,1976.07,503.25,1970.31,503.32Z"/></g><g class="cls-14"><path class="cls-15" d="M1991.5,537.19c-14.31-2.74-30.42-2-41.71,7.16C1920.8,533.66,1885,547,1870,574c-14.74-22.93-48.58-27.8-73-15.74s-40.28,37-49,62.78c-21.81-48-94-49.7-111.61,3.05-3.92-7.86-14.82-10-23-6.84s-14.34,10-20.12,16.58c-3-17.67-24.31-27.48-41.86-23.81s-31.45,16.94-42.74,30.88c-4.79-17.23-24.57-27.29-42.33-25.22s-33.15,13.83-44.25,27.85c-4.93,6.24-9.34,13.12-15.82,17.75-9,6.42-20.6,7.56-31.63,8.37q-30,2.21-60,3.18c20.07,1.55,40,3.52,59.61,7,20.83,3.69,38.77,19.65,57.7,29.93q13.2,7.15,26.82,13.5c4.3.63,8.59,1.31,12.86,2.07,13,2.29,24.8,9.34,36.46,16.81a271.26,271.26,0,0,0,66.75,11.34c13.74.5,27.81-2.93,41.28-2.29,12.6.6,24.31,6.49,37.09,9,36.81,7.36,75,.21,111-10.43,32-9.44,64.29-23.12,89.52-45.37,21-18.53,35.15-43.24,55.15-62.58a741.35,741.35,0,0,1,61.28-53.15c15.92-12.38,31.22-29.11,36-47.89C2001.22,539.42,1996.4,538.13,1991.5,537.19Z"/></g><g class="cls-14"><path class="cls-15" d="M2950.39,391.79c-3.69-2.75-38-12.46-38.16-3.15.15-10.95-9.44-20.39-20.17-22.62s-21.93,1.52-31.15,7.44c2.05-7.19-6-13.78-13.44-14s-14.44,3.38-21.66,5.32a18,18,0,0,1-5.25.76,29.55,29.55,0,0,1-6.21-1.28c-8.57-2.21-18.26-1.59-25.48,3.52s-11.08,15.32-7.33,23.34a10.15,10.15,0,0,0-8,9.91c.42,15.62,25.08,9.83,34.32,10.8,16.35,1.72,32.73,3.08,49.17,3.76,19.25.79,39.35,2.15,58.4,1.17,23.82-1.22,46.94-4,70.72,0a10.82,10.82,0,0,0,5.12.05c1.63-.55,3-2.28,2.53-3.93-.4-1.38-1.87-2.14-3.23-2.59-9.44-3.15-21,.58-28.93-5.5-4.22-3.25-6.28-8.64-10.28-12.14A12.65,12.65,0,0,0,2950.39,391.79Z"/></g><g class="cls-14"><path class="cls-15" d="M2950.39,391.79c-3.69-2.75-38-12.46-38.16-3.15.15-10.95-9.44-20.39-20.17-22.62s-21.93,1.52-31.15,7.44c2.05-7.19-6-13.78-13.44-14s-14.44,3.38-21.66,5.32a18,18,0,0,1-5.25.76,29.55,29.55,0,0,1-6.21-1.28c-8.57-2.21-18.26-1.59-25.48,3.52s-11.08,15.32-7.33,23.34a10.15,10.15,0,0,0-8,9.91c.42,15.62,25.08,9.83,34.32,10.8,16.35,1.72,32.73,3.08,49.17,3.76,19.25.79,39.35,2.15,58.4,1.17,23.82-1.22,46.94-4,70.72,0a10.82,10.82,0,0,0,5.12.05c1.63-.55,3-2.28,2.53-3.93-.4-1.38-1.87-2.14-3.23-2.59-9.44-3.15-21,.58-28.93-5.5-4.22-3.25-6.28-8.64-10.28-12.14A12.65,12.65,0,0,0,2950.39,391.79Z"/></g><g class="cls-14"><path class="cls-15" d="M2870.19,416.72c6.15-.31,12.26-.73,18.34-1.12l-.17-.13c-3.68-2.74-38-12.46-38.16-3.15.16-10.95-9.44-20.39-20.16-22.61s-21.94,1.51-31.15,7.43c2-7.18-6-13.78-13.45-14s-14.43,3.38-21.65,5.31a18.1,18.1,0,0,1-5.26.77,29.61,29.61,0,0,1-6.2-1.29,35,35,0,0,0-17.18-.24,15.53,15.53,0,0,0,1.11,3.42,10.15,10.15,0,0,0-8,9.91c.41,15.62,25.07,9.83,34.31,10.8,16.36,1.72,32.74,3.08,49.18,3.76C2831,416.34,2851.14,417.7,2870.19,416.72Z"/></g><g class="cls-14"><path class="cls-15" d="M3199.62,510.3c0-6.18-57.46,7.59-61.7,6.94-8.36-1.27-10.78-8.63-15.72-14.62a63.43,63.43,0,0,0-23.13-18,62.14,62.14,0,0,0-46-1.55c-8.28,3-15.79,7.78-23.23,12.5-6.68,4.24-15.33,12.36-22.88,14.54-9.72,2.8-5.37.95-11.35-5.4-8.32-8.84-17.79-13-30.2-13.18a122.23,122.23,0,0,0-35.7,5.17c-13.75,4.07-11.78,4.85-13.22-8.06-.52-4.62-3-9.3-7.32-11.09a19.51,19.51,0,0,0-7.14-1.07c-6.79-.18-13.69-.34-20.24,1.44s-12.83,5.82-15.67,12a17.52,17.52,0,0,0-30.27-4.4A31.32,31.32,0,0,0,2783,472.79c-12.1,12.87-10,28.81-10.19,44.61-.18,14.87-8,29.47-18,40.41-7.2,7.85-15.94,14.14-23.36,21.77a92,92,0,0,0-25.55,69c1.23,19.68,8.82,38.41,17.77,56,25.31,49.69,64.37,94.68,116.22,115.2,59,23.35,128.06,13,185.12,40.75,16.47,8,31.39,18.95,48,26.64,24.55,11.37,51.86,15.18,78.78,17.87,12.11,1.21,24.47,2.2,36.33-.54a62,62,0,0,0,11.47-3.91Z"/></g><g class="cls-14"><path class="cls-15" d="M3199.62,900.54V597c-7.93,3-15.19,7.61-22.37,12.16-6.68,4.24-15.33,12.37-22.88,14.54-9.72,2.8-5.37,1-11.35-5.4-8.32-8.84-17.79-13-30.2-13.18a121.91,121.91,0,0,0-35.7,5.18c-13.75,4.06-11.78,4.84-13.22-8.07-.52-4.62-3-9.3-7.32-11.09a19.72,19.72,0,0,0-7.14-1.07c-6.79-.17-13.69-.34-20.24,1.45s-12.83,5.82-15.67,12a17.51,17.51,0,0,0-30.26-4.4,31.32,31.32,0,0,0-52.89-12.75c-12.11,12.87-10,28.81-10.2,44.61-.18,14.87-7.95,29.48-18,40.41-7.2,7.85-15.94,14.14-23.36,21.78a92,92,0,0,0-25.55,69c1.23,19.68,8.82,38.41,17.77,56q3.21,6.3,6.72,12.48c49.3,9.86,102,8,147.24,29.93,16.47,8,31.39,18.95,48,26.64,24.55,11.37,51.86,15.18,78.78,17.87,12.11,1.21,24.47,2.2,36.33-.54A62,62,0,0,0,3199.62,900.54Z"/></g><g class="cls-16"><path class="cls-15" d="M1799.76,31.86C1567,47.93,1336.59,98.61,1103.3,96.37c8.41,22.5-10.81,47.61-33.74,54.78s-47.64,1.68-71.14-3.33C669.09,77.57,318.62,110,7.72,239.34a172.13,172.13,0,0,1,105,36.51C75.46,283.26,37.93,288.93.25,293.63v147.7a1689.74,1689.74,0,0,1,218.3-62.93,76.93,76.93,0,0,0-52.3,44.67l233.17-77.79c119.86-40,240.08-80.06,363.9-105.27A1567.16,1567.16,0,0,1,1236.72,217a247,247,0,0,0-156,62.75c91,.83,175.88-41.81,260.7-74.92,356.43-139.12,757-116.6,1130.44-33.37C2280,38.78,2032.51,15.79,1799.76,31.86Z"/></g><g class="cls-16"><path class="cls-15" d="M657.93,432a505.47,505.47,0,0,1,100.42-27.39A665.18,665.18,0,0,1,465,562.82l141.73-22.36c51.41-8.1,103.24-16.32,152-34.59,52.79-19.8,100.87-51,154.32-69,61.46-20.62,127.34-22.85,192.13-24.9l245.19-7.74c-26.8-25.23-65.72-31.63-102.16-36.87-66.52-9.57-140.43-11.59-205.13-29.47-70.12-19.38-99.07-32.34-164.7-1.07C806,371.31,729.33,394.32,657.93,432Z"/></g><g class="cls-16"><path class="cls-15" d="M224.72,539.13A1845.25,1845.25,0,0,0,.25,648v149.8Q48,749.38,97.31,702.52q.94,16.14,1.87,32.27A1848.55,1848.55,0,0,0,334.55,528L178.79,590.74Z"/></g><g class="cls-16"><path class="cls-15" d="M1861.42,179.77a154.21,154.21,0,0,0-47.78,30.33c113.25,3.11,231.11-37.29,337.14,2.6A411.43,411.43,0,0,1,1923.28,248a73.4,73.4,0,0,1,45.78,20.8l-129,1.29c-42.23.42-84.69.87-126.29,8.17-81.11,14.24-155.29,53.81-226.84,94.59q-57.24,32.63-113.61,66.78a566.56,566.56,0,0,0,107.74-98.75c28.17-33.44,40.75-85.37,79.58-106.86,20.7-11.45,44.27-16.36,67.44-21.13,36.94-7.6,73.75-12.93,111.05-18.5C1775.43,189,1827.86,193.22,1861.42,179.77Z"/></g><g class="cls-16"><path class="cls-15" d="M3199.62,76.36l-32.18-2.13c-10.91-.72-23-1.1-31.48,5.8s-8.16,23.86,2.53,26.2L2764.22,93.64c-23.38-.78-47.23-1.51-69.7,5A45.53,45.53,0,0,0,2728,116.17a290.8,290.8,0,0,0-113.59,39.24,1436,1436,0,0,0,255.17-7.31l-68.11,48.21c22.84,4.48,45.46-7,68.46-10.64,40.73-6.38,80.61,12.13,120.6,22.13,67.89,17,138.56,9.37,209.11,1.84Z"/></g></g><g id="Layer_7" data-name="Layer 7"><rect class="cls-17" x="0.66" y="1139.25" width="3198.97" height="860.75"/><g class="cls-18"><path class="cls-19" d="M1990.68,2000a486.2,486.2,0,0,0,70.77-50.24c36-30.86,66.93-67,97.73-103.07,33.38-39.06,66.92-78.31,93.78-122.1,33.31-54.29,64.49-119.19,71.65-183.16,6-53.94,6.42-114.06,23.8-166,7.31-21.87,19.63-41.72,33-60.53,42.83-60.35,98-113.46,136.59-175.64H1347.55c9.61,14.24,24.65,25.61,39.58,34.77a383.44,383.44,0,0,0,155.74,53.46c28.18,3.27,231.2,5.91,175.53,84.11-13.18,18.52-38,24-60.6,26.44-80.93,8.71-162.43-3.6-243.71-8-217.89-11.84-434.42,33.14-648,77.87-20.73,4.34-46.79,15.45-44.65,36.52,1.9,18.61,24.53,26.14,42.95,29.41,94.52,16.8,189.44,34.1,281,63.54,51.88,16.67,136.5,29.55,156.91,87.52,5.23,14.84,4.08,33-6.94,44.23-4.35,4.43-9.88,7.47-15.32,10.46l-162.66,89.07c-24.94,13.66-50.18,27.54-70.9,47s-36.79,45.49-38.41,73.88c-3,53.2,45.71,97.27,97.48,110.48h179.88c2.52,0,5,0,7.54,0h797.69Z"/></g><g class="cls-18"><path class="cls-20" d="M.66,1371.78l2.74-1.21c88.56-29.68,203.45-77.88,310.73-83.33,131.22-6.66,268.58,1.63,402.51-5.85l514-28.69c10.92-.61,23.19-1.6,29.55-6.2,8.29-6,1-14.84-10.79-19s-26.67-5-40.62-6.66c-61-7.15-110.45-29.75-168.26-42.07-44.06-9.4-92-12.63-139.34-15.77-129.41-8.59-258.67-17.84-388.37-23.78H.66Z"/></g><g class="cls-18"><path class="cls-21" d="M602.91,1531.15l-159.39-53.23c-29.16-9.74-58.52-19.52-88.95-23.88-118-16.89-238,48.67-353.91,49.36v301c37.3-14.94,74.65-30,112.75-41.55A654.8,654.8,0,0,1,317.24,1735c8.87-22.06-15.82-42.31-37.3-52.51s-47.53-26.57-43.06-49.91c4.63-24.19,36.74-29,61.36-28.19l199.51,6.45c47.54,1.54,105.94-3.2,126-46.34,2.14-4.61,3.72-9.74,2.72-14.72C624.38,1539.46,612.87,1534.48,602.91,1531.15Z"/></g><g class="cls-22"><path class="cls-23" d="M3199.62,1142.5v307.86L2945,1545l-196,340-152-16-48,92-76,24v-52l-68-36h-64l-176-160-144,124-96-64v-48l-276-232-180,160-124-128-112-168c-132-8-260,184-260,184L661,1455l-44,134H489l-104-84H205L.25,1321V1142.5Z"/><polygon class="cls-24" points="2493.29 1142.5 2821 1292.25 2867 1591 2715 1819 2689.01 1878.69 2597 1869 2549 1961 2473 1985 2473 1933 2405 1897 2341 1897 2165 1737 2155.49 1142.5 2493.29 1142.5"/><path class="cls-25" d="M2473,1985l91.54-289.11L2671,1633l-135-81.1L2753,1297s8-135.48-482-142l125.55,287,43.26,189.31L2341,1602.89V1897h64l68,36Z"/><g class="cls-26"><path class="cls-27" d="M1291,1375c20.23,35.57,15.83,64.57-3.22,88.17L1233,1381c-122.49-7.42-241.52,157.36-258,181.15h0L931,1515l12-48-70-34,40-94L773.43,1142.5h69.41L875,1191S1200,1215,1291,1375Z"/></g><polygon class="cls-28" points="431 1281.88 541 1399 487 1481 617 1589 489 1589 385 1505 205 1505 0.25 1321 0.25 1142.5 409.64 1142.5 431 1281.88"/><path class="cls-29" d="M773.43,1142.5,913,1339l-40,94,70,34-12,48,44,47.15c-1.28,1.85-2,2.85-2,2.85L661,1455l94.7-312.5Z"/><path class="cls-30" d="M875,1191l-32.16-48.5h603L1441,1303l-52,142,76,98v129.87L1345,1549l-104.56-156.84q-3.57-5.57-7.44-11.16C1105.2,1196.69,875,1191,875,1191Z"/><polygon class="cls-31" points="1441 1303 1441 1442 1843 1142.5 1445.86 1142.5 1441 1303"/><polygon class="cls-32" points="1925 1797 2021 1861 2057 1629 1957 1589 1931.57 1142.5 1843 1142.5 1649 1516.83 1925 1749 1925 1797"/><path class="cls-33" d="M2671,1633l-135-81.1,61-62.9,156-192s-146,30.32-338.26-154.5H3074L2923,1393l42,52.57L2945,1545l-200.65,356.38L2473,1985l91.54-289.11Z"/><path class="cls-34" d="M3105,1375s31.88-168.32,94.62-226v301.34L2945,1545l8.05-40S3027,1475,3105,1375Z"/><g class="cls-35"><polygon class="cls-36" points="617 1589 487 1481 541 1399 431 1281.88 409.64 1142.5 755.7 1142.5 661 1455 617 1589"/></g><g class="cls-37"><polygon class="cls-38" points="1541.47 1612.58 1469 1677 1465 1543 1441 1442 1718 1142.5 1843 1142.5 1649 1517 1541.47 1612.58"/></g><polygon class="cls-13" points="1469 1677 1517 1563.58 1541.47 1532.83 1507 1496.83 1549 1496.83 1760.08 1302.57 1649 1516.83 1469 1677"/><polygon class="cls-25" points="1649 1517 1726.5 1367.34 1823.02 1181.07 1771 1424 1713 1439 1779 1447 1649 1517"/><g class="cls-39"><polygon class="cls-40" points="2021 1861 2165 1737 2231 1545 2347 1302.57 2309 1142.5 1931.57 1142.5 1957 1589 2057 1629 2021 1861"/></g><polygon class="cls-41" points="2057 1629 1957 1589 1948.22 1434.82 1918 1596 2057 1629"/><polygon class="cls-25" points="1328.6 1407.68 1304.26 1328.41 1328.6 1328.41 1328.6 1262.41 1364.6 1335.05 1334.43 1349.04 1364.6 1377.9 1334.43 1379.4 1349.6 1476.9 1328.6 1407.68"/><polygon class="cls-25" points="2282 1772 2271 1617 2287 1648 2292 1447 2306 1670 2282 1772"/><path class="cls-25" d="M370,1431.56l143,107-77-84s38,27.8,25,6.9-117-184.65-117-184.65l77,149.75Z"/></g><path class="cls-42" d="M608.57,1688.43l16.56-28.76s52-10.85,54.45-50.74l42.57-11,27-28.65L783,1614.67l50.83,9.09,11.76,28.33,22.7,35S747.83,1759.08,608.57,1688.43Z"/><path class="cls-43" d="M625.13,1659.67l-16.56,28.76c139.26,70.65,259.76-1.33,259.76-1.33l-12.43-19.16-109.6-17.2,5.82-21.26-30-31.58-42.57,11C677.16,1648.82,625.13,1659.67,625.13,1659.67Z"/><g class="cls-44"><path class="cls-45" d="M608.57,1688.43l-14.84,71.18s49.21,20.11,44.35,59.77L677.94,1838,699.26,1871l41.61-38.52,51.63.28,16.7-25.73,59.13-118.62C825.24,1708.09,721.33,1747.42,608.57,1688.43Z"/><path class="cls-46" d="M711.28,1790.37l104.84,2.8,52.21-104.74c-43.09,19.66-147,59-259.76,0l-14.84,71.18a96.9,96.9,0,0,1,16.37,9.17c1.42,1,2.87,2,4.33,3.17l1.1.86q1.65,1.32,3.29,2.76a72.92,72.92,0,0,1,8.34,8.65,56.74,56.74,0,0,1,5.28,7.71q1.17,2.05,2.15,4.24a44.33,44.33,0,0,1,3.28,10.9c.18,1.11.32,2.23.41,3.38a44.08,44.08,0,0,1-.2,8.93L677.94,1838l35.21-25.62Z"/></g><polygon class="cls-47" points="0.66 1691.93 487.15 1793.3 469.15 1845.96 494.65 1935.79 452.65 2000 0.66 2000 0.66 1691.93"/><polygon class="cls-48" points="0 1918.75 181.16 1854.8 469.15 1845.96 494.65 1935.79 452.65 2000 0.66 2000 0 1918.75"/><polygon class="cls-25" points="469.82 1845.67 324.59 1849.59 208.26 1837.88 310.59 1831.59 469.82 1845.67"/><path class="cls-49" d="M2654.79,1139.25H2462.27a295.82,295.82,0,0,0-77.74,48.16c-53.17,45.41-91.25,105.79-124.4,167.35-24.12,44.79-47.62,92.56-88.89,122.3-49.31,35.52-114,38.43-174.6,43.25C1711,1543,1419.9,1646.09,1230.84,1861.42c-39.09,44.53-73.31,93.17-111.32,138.58h2080.1V1139.25Z"/><path class="cls-50" d="M3199.62,1139.25H2462.27a295.82,295.82,0,0,0-77.74,48.16c-53.17,45.41-91.25,105.79-124.4,167.35-24.12,44.79-47.62,92.56-88.89,122.3-49.31,35.52-114,38.43-174.6,43.25C1711,1543,1419.9,1646.09,1230.84,1861.42c-39.09,44.53-73.31,93.17-111.32,138.58H1868.3c34.2-44.36,80.66-80.88,130.11-107.76,87.77-47.7,186.22-71.23,280.45-104.37,97.15-34.16,192-79.9,267.89-149.54,88.57-81.31,148.77-192.8,248.42-260.09,117.23-79.17,266.52-83.19,404.45-118Z"/><path class="cls-51" d="M1327.25,1950.49c189-215.33,480.16-318.39,765.8-341.11,60.59-4.82,125.28-7.73,174.59-43.25,41.28-29.74,64.77-77.51,88.89-122.3,29.08-54,62-109.56,107.28-151.71,50.92-47.37,118.64-81.89,176.85-120.06,17.17-11.25,34.47-22.57,52.29-32.81H2462.27a295.82,295.82,0,0,0-77.74,48.16c-53.17,45.41-91.25,105.79-124.4,167.35-24.12,44.79-47.62,92.56-88.89,122.3-49.31,35.52-114,38.43-174.6,43.25C1711,1543,1419.9,1646.09,1230.84,1861.42c-39.09,44.53-73.31,93.17-111.32,138.58H1286.4C1299.65,1983.19,1313.13,1966.57,1327.25,1950.49Z"/><g class="cls-18"><path class="cls-52" d="M1245.34,1876.92c189.06-215.33,480.16-318.39,765.8-341.11,60.59-4.82,125.29-7.73,174.6-43.25,41.27-29.74,64.77-77.51,88.89-122.3,33.15-61.56,71.23-121.94,124.4-167.35a295.82,295.82,0,0,1,77.74-48.16H2667.4c8.42-5.33,16.92-10.54,25.55-15.5H2462.27a295.82,295.82,0,0,0-77.74,48.16c-53.17,45.41-91.25,105.79-124.4,167.35-24.12,44.79-47.62,92.56-88.89,122.3-49.31,35.52-114,38.43-174.6,43.25C1711,1543,1419.9,1646.09,1230.84,1861.42c-39.09,44.53-73.31,93.17-111.32,138.58h27.24C1179.81,1959.15,1210.66,1916.42,1245.34,1876.92Z"/></g><g class="cls-14"><path class="cls-53" d="M1217.34,1876.92c189.06-215.33,480.16-318.39,765.8-341.11,60.59-4.82,125.29-7.73,174.6-43.25,41.27-29.74,64.77-77.51,88.89-122.3,33.15-61.56,71.23-121.94,124.4-167.35a295.82,295.82,0,0,1,77.74-48.16H2639.4c8.42-5.33,16.92-10.54,25.55-15.5H2434.27a295.82,295.82,0,0,0-77.74,48.16c-53.17,45.41-91.25,105.79-124.4,167.35-24.12,44.79-47.62,92.56-88.89,122.3-49.31,35.52-114,38.43-174.6,43.25C1683,1543,1391.9,1646.09,1202.84,1861.42c-39.09,44.53-73.31,93.17-111.32,138.58h27.24C1151.81,1959.15,1182.66,1916.42,1217.34,1876.92Z"/></g><g class="cls-14"><path class="cls-54" d="M1195.34,1876.92c189.06-215.33,480.16-318.39,765.8-341.11,60.59-4.82,125.29-7.73,174.6-43.25,41.27-29.74,64.77-77.51,88.89-122.3,33.15-61.56,71.23-121.94,124.4-167.35a295.82,295.82,0,0,1,77.74-48.16H2617.4c8.42-5.33,16.92-10.54,25.55-15.5H2412.27a295.82,295.82,0,0,0-77.74,48.16c-53.17,45.41-91.25,105.79-124.4,167.35-24.12,44.79-47.62,92.56-88.89,122.3-49.31,35.52-114,38.43-174.6,43.25C1661,1543,1369.9,1646.09,1180.84,1861.42c-39.09,44.53-73.31,93.17-111.32,138.58h27.24C1129.81,1959.15,1160.66,1916.42,1195.34,1876.92Z"/></g><g class="cls-14"><path class="cls-55" d="M1169.34,1876.92c189.06-215.33,480.16-318.39,765.8-341.11,60.59-4.82,125.29-7.73,174.6-43.25,41.27-29.74,64.77-77.51,88.89-122.3,33.15-61.56,71.23-121.94,124.4-167.35a295.82,295.82,0,0,1,77.74-48.16H2591.4c8.42-5.33,16.92-10.54,25.55-15.5H2386.27a295.82,295.82,0,0,0-77.74,48.16c-53.17,45.41-91.25,105.79-124.4,167.35-24.12,44.79-47.62,92.56-88.89,122.3-49.31,35.52-114,38.43-174.6,43.25C1635,1543,1343.9,1646.09,1154.84,1861.42c-39.09,44.53-73.31,93.17-111.32,138.58h27.24C1103.81,1959.15,1134.66,1916.42,1169.34,1876.92Z"/></g></g><g id="Layer_6" data-name="Layer 6"><path class="cls-56" d="M3199.62,1139.25V831.39L2945,736.75l-196-340-152,16-48-92-76-24v52l-68,36h-64l-176,160-144-124-96,64v48l-276,232-180-160-124,128-112,168c-132,8-260-184-260-184l-312,110-44-134H489l-104,84H205L.25,960.75v178.5Z"/><polygon class="cls-57" points="2493.29 1139.25 2821 989.5 2867 690.75 2715 462.75 2689.01 403.06 2597 412.75 2549 320.75 2473 296.75 2473 348.75 2405 384.75 2341 384.75 2165 544.75 2155.49 1139.25 2493.29 1139.25"/><path class="cls-25" d="M2473,296.75l91.54,289.11L2671,648.75l-135,81.1,217,254.9s8,135.48-482,142l125.55-287,43.26-189.31L2341,678.86V384.75h64l68-36Z"/><path class="cls-58" d="M1291,906.75c20.23-35.57,15.83-64.57-3.22-88.17L1233,900.75c-122.49,7.42-241.52-157.36-258-181.15h0l-44,47.15,12,48-70,34,40,94-139.57,196.5h69.41l32.16-48.5S1200,1066.75,1291,906.75Z"/><polygon class="cls-59" points="431 999.88 541 882.75 487 800.75 617 692.75 489 692.75 385 776.75 205 776.75 0.25 960.75 0.25 1139.25 409.64 1139.25 431 999.88"/><path class="cls-60" d="M773.43,1139.25,913,942.75l-40-94,70-34-12-48,44-47.15c-1.28-1.85-2-2.85-2-2.85l-312,110,94.7,312.5Z"/><path class="cls-61" d="M875,1090.75l-32.16,48.5h603L1441,978.75l-52-142,76-98V608.88L1345,732.75,1240.44,889.59q-3.57,5.56-7.44,11.16C1105.2,1085.06,875,1090.75,875,1090.75Z"/><polygon class="cls-62" points="1441 978.75 1441 839.75 1843 1139.25 1445.86 1139.25 1441 978.75"/><polygon class="cls-63" points="1925 484.75 2021 420.75 2057 652.75 1957 692.75 1931.57 1139.25 1843 1139.25 1649 764.92 1925 532.75 1925 484.75"/><path class="cls-64" d="M2671,648.75l-135,81.1,61,62.9,156,192s-146-30.32-338.26,154.5H3074l-151-250.5,42-52.57-20-99.43L2744.35,380.37,2473,296.75l91.54,289.11Z"/><path class="cls-65" d="M3105,906.75s31.88,168.32,94.62,226V831.39L2945,736.75l8.05,40S3027,806.75,3105,906.75Z"/><polygon class="cls-66" points="617 692.75 487 800.75 541 882.75 431 999.88 409.64 1139.25 755.7 1139.25 661 826.75 617 692.75"/><polygon class="cls-67" points="1541.47 669.17 1469 604.75 1465 738.75 1441 839.75 1718 1139.25 1843 1139.25 1649 764.75 1541.47 669.17"/><polygon class="cls-13" points="1469 604.75 1517 718.17 1541.47 748.92 1507 784.92 1549 784.92 1760.08 979.18 1649 764.92 1469 604.75"/><polygon class="cls-25" points="1649 764.75 1726.5 914.41 1823.02 1100.68 1771 857.75 1713 842.75 1779 834.75 1649 764.75"/><polygon class="cls-68" points="2021 420.75 2165 544.75 2231 736.75 2347 979.18 2309 1139.25 1931.57 1139.25 1957 692.75 2057 652.75 2021 420.75"/><polygon class="cls-41" points="2057 652.75 1957 692.75 1948.22 846.93 1921.76 672.25 2057 652.75"/><polygon class="cls-25" points="1328.6 874.07 1304.26 953.34 1328.6 953.34 1328.6 1019.34 1364.6 946.7 1334.43 932.72 1364.6 903.85 1334.43 902.35 1349.6 804.85 1328.6 874.07"/><polygon class="cls-25" points="2282 509.75 2271 664.75 2287 633.75 2292 834.75 2306 611.75 2282 509.75"/><path class="cls-25" d="M370,850.19l143-107-77,84s38-27.8,25-6.9-117,184.65-117,184.65l77-149.75Z"/><g class="cls-69"><rect class="cls-70" x="0.25" y="968.91" width="3199.38" height="170.34"/></g></g><g id="Layer_8" data-name="Layer 8"><polygon class="cls-71" points="2680.68 1139.83 2699.22 1000.87 2717.76 1139.83 2680.68 1139.83"/><polygon class="cls-71" points="2709.22 1139.83 2732.03 968.9 2754.84 1139.83 2709.22 1139.83"/><polygon class="cls-71" points="2744.57 1139.83 2764.84 987.92 2785.11 1139.83 2744.57 1139.83"/><polygon class="cls-72" points="2614.38 1193.58 2559.14 1193.58 2559.14 1099.6 2586.76 1068.39 2614.38 1099.6 2614.38 1193.58"/><rect class="cls-73" x="2614.38" y="1099.6" width="78.92" height="93.99"/><polygon class="cls-71" points="2586.76 1068.39 2665.32 1068.39 2693.3 1099.6 2614.38 1099.6 2586.76 1068.39"/><polygon class="cls-71" points="2587.57 1069.37 2558.15 1102.56 2559.23 1099.15 2586.76 1068.39 2587.57 1069.37"/><rect class="cls-71" x="2580.12" y="1103.18" width="10.22" height="34.98"/><rect class="cls-71" x="2636.62" y="1120.67" width="7" height="17.49"/><rect class="cls-71" x="2668.91" y="1120.67" width="7" height="17.49"/><polygon class="cls-74" points="2529.01 1193.58 2426.77 1193.58 2426.77 1135.47 2477.89 1114.48 2529.01 1135.47 2529.01 1193.58"/><rect class="cls-75" x="2529.01" y="1135.47" width="30.13" height="58.11"/><polygon class="cls-71" points="2477.89 1114.48 2559.14 1114.48 2559.14 1135.47 2529.01 1135.47 2477.89 1114.48"/><polygon class="cls-71" points="2429.99 1136.81 2481.11 1115.83 2477.89 1114.48 2423 1136.81 2429.99 1136.81"/><circle class="cls-71" cx="2479.14" cy="1138.16" r="7"/><polygon class="cls-76" points="2824.17 1192.57 2715.12 1192.57 2715.12 1113.47 2769.65 1087.1 2824.17 1113.47 2824.17 1192.57"/><rect class="cls-77" x="2824.17" y="1113.47" width="97.57" height="79.1"/><polygon class="cls-71" points="2769.65 1087.1 2890.17 1087.1 2921.74 1113.47 2824.17 1113.47 2769.65 1087.1"/><polygon class="cls-71" points="2774.66 1089.52 2712.14 1118.85 2713.94 1113.2 2769.64 1087.1 2774.66 1089.52"/><rect class="cls-71" x="2743.01" y="1149.7" width="50.04" height="42.87"/><circle class="cls-71" cx="2768.03" cy="1120.64" r="9.95"/><rect class="cls-71" x="2844.52" y="1142.17" width="8.61" height="23.95"/><rect class="cls-71" x="2869.27" y="1142.17" width="8.61" height="23.95"/><rect class="cls-71" x="2894.03" y="1142.17" width="8.61" height="23.95"/><polygon class="cls-71" points="2973 1139.58 2986 1042.16 2999 1139.58 2973 1139.58"/><polygon class="cls-71" points="2993.01 1139.58 3009 1019.75 3024.99 1139.58 2993.01 1139.58"/><polygon class="cls-71" points="3017.79 1139.58 3032 1033.08 3046.21 1139.58 3017.79 1139.58"/><polygon class="cls-71" points="3033.89 1139.58 3045 1056.3 3056.11 1139.58 3033.89 1139.58"/><polygon class="cls-71" points="3069.22 1139.58 3080.33 1056.3 3091.45 1139.58 3069.22 1139.58"/><polygon class="cls-71" points="3104.55 1139.58 3115.67 1056.3 3126.78 1139.58 3104.55 1139.58"/><polygon class="cls-71" points="3139.89 1139.58 3151 1056.3 3162.11 1139.58 3139.89 1139.58"/><polygon class="cls-71" points="1593.03 1839.83 1568.17 1950.34 1575.51 1951.69 1563.7 1970.23 1557 2000 1619.91 2000 1607.66 1926.98 1596.95 1897.84 1602.11 1893.9 1593.03 1839.83"/><polygon class="cls-71" points="1762.14 2000 1746.99 1909.75 1730.84 1878.94 1741.31 1875.86 1711.48 1698.16 1689.34 1796.6 1697.01 1799.19 1684.01 1820.3 1643.59 2000 1762.14 2000"/><polygon class="cls-71" points="1921.76 2000 1904.77 1898.79 1884.11 1850.02 1896.43 1849.09 1867.97 1679.54 1817.82 1902.48 1833.9 1900.41 1808.77 1942.7 1795.88 2000 1921.76 2000"/><polygon class="cls-71" points="2456.68 2000 2406.5 1701.06 2386.76 1665.66 2400.32 1664.2 2370.91 1489.02 2292.92 1835.77 2306.54 1835.85 2287.3 1860.73 2255.98 2000 2456.68 2000"/><polygon class="cls-71" points="2613.2 2000 2594.05 1885.91 2576.35 1849.34 2587.57 1847.29 2550.93 1629 2532.84 1586.11 2543.35 1583.86 2521.93 1456.26 2454.24 1757.2 2473.85 1758.67 2445.54 1795.87 2399.63 2000 2613.2 2000"/><polygon class="cls-71" points="2143.01 2000 2286.98 2000 2272.1 1911.34 2259 1893.78 2269.07 1893.3 2225.46 1633.45 2193.5 1775.53 2209.63 1777.18 2184.95 1813.56 2143.01 2000"/><polygon class="cls-71" points="2586.45 1999.07 2615.66 1821.96 2643.41 1783.24 2622.15 1782.61 2674.89 1462.9 2697.39 1408.12 2683.65 1409.75 2723.61 1167.47 2773.47 1583.64 2757.88 1583.77 2778.91 1629 2823.35 2000 2586.45 1999.07"/><polygon class="cls-71" points="2799.74 1999.07 2894.82 1422.59 2922.71 1363.01 2904.45 1364.23 2936.9 1167.47 2982.13 1545 2964.88 1547.25 2987.64 1590.98 3036.64 2000 2799.74 1999.07"/><polygon class="cls-71" points="3199.63 1580.08 3190.24 1501.75 3169.41 1465.59 3185.81 1464.78 3150.19 1167.47 3118.7 1358.43 3133.53 1358.6 3112.53 1395.81 3013.03 1999.07 3199.63 1999.8 3199.63 1580.08"/><polygon class="cls-71" points="3050.53 1301.57 3005.1 1576.99 3019.41 1578.8 2999.75 1609.44 2935.33 2000 3134.21 2000 3071.39 1475.68 3054.72 1442.06 3067.38 1442.22 3050.53 1301.57"/><polygon class="cls-71" points="2836.98 1374.6 2813.49 1517 2826.6 1516.66 2804.81 1569.63 2733.83 2000 2911.91 2000 2836.98 1374.6"/><polygon class="cls-71" points="1902.97 1999.07 1957.98 1754.52 1987.5 1704.83 1969.15 1704.83 2038.55 1396.33 2110.74 1826.45 2091.54 1829.59 2118.22 1871.02 2139.87 2000 1902.97 1999.07"/><polygon class="cls-71" points="3051.5 1139.58 3064.5 1042.16 3077.5 1139.58 3051.5 1139.58"/><polygon class="cls-71" points="2568.67 1285.37 2585.4 1160 2602.13 1285.37 2568.67 1285.37"/><polygon class="cls-71" points="2594.42 1285.37 2615 1131.16 2635.58 1285.37 2594.42 1285.37"/><polygon class="cls-71" points="2626.31 1285.37 2644.6 1148.32 2662.89 1285.37 2626.31 1285.37"/><polygon class="cls-71" points="2381.8 1191.77 2399.63 1058.18 2417.45 1191.77 2381.8 1191.77"/><polygon class="cls-78" points="2997.66 1192.57 2942.41 1192.57 2942.41 1113.58 2970.03 1082.37 2997.66 1113.58 2997.66 1192.57"/><rect class="cls-79" x="2997.65" y="1113.58" width="133.92" height="78.99"/><polygon class="cls-71" points="2970.03 1082.37 3103.59 1082.37 3131.58 1113.58 2997.66 1113.58 2970.03 1082.37"/><polygon class="cls-71" points="2970.84 1083.36 2941.43 1116.54 2942.5 1113.13 2970.03 1082.37 2970.84 1083.36"/><rect class="cls-71" x="2963.4" y="1116.54" width="10.22" height="19.98"/><rect class="cls-71" x="3013.03" y="1147.5" width="40.32" height="19.98"/><rect class="cls-71" x="3072.7" y="1147.5" width="40.32" height="19.98"/><path class="cls-71" d="M1706.17,1233.19h108.45l-2.23,2.61a36.63,36.63,0,0,1-27.88,12.88h-96.7a34.42,34.42,0,0,1-23-8.83l-7.4-6.66Z"/><polygon class="cls-71" points="1740.39 1233.19 1736.95 1233.19 1737.81 1138.49 1739.53 1138.49 1740.39 1233.19"/><path class="cls-71" d="M1735.66,1139.86s-23,64-54.8,78c0,0,39.16,2,53.81,13.74Z"/><path class="cls-71" d="M1741.87,1139.86s63.37,52.28,50.6,84.25c0,0-18.36-1.7-49.61,7.45Z"/><path class="cls-80" d="M1741.87,1139.86l0,3.56c14.51,13.11,51.6,54.63,46.14,80.57,2.9,0,4.42.12,4.42.12C1805.24,1192.14,1741.87,1139.86,1741.87,1139.86Z"/><path class="cls-71" d="M2063.07,1359.71h81.52l7.66-1.19,3.43,1.19-1.9,2.23a31.29,31.29,0,0,1-23.82,11h-82.57a29.42,29.42,0,0,1-19.65-7.54l-6.32-5.69,7.17-3.17h0a5.16,5.16,0,0,0,4.76,3.17Z"/><path class="cls-71" d="M2124.53,1308.81a8.44,8.44,0,0,0,3.51,6s.32,1.6-2.55,1.33l.05,1s5.75,2.29,6.38,14.68c0,0-3.35,3.72-3.24,6.59s-2.07,11.07-2.07,11.07l.1,11.32-10.95.32s-2.13-14.14.26-19.46a8.38,8.38,0,0,0-2.55-1s-4.25.21-4.52-1.7c0,0,5.53-3.14,5.58-8.3,0,0-1.33-8.72,4.95-11.75l-.32-2.13s-4.65-1.67-5-5.38a1.63,1.63,0,0,1,1.23-1.79,6.35,6.35,0,0,1,2.17-.06l1.81-1.65A6,6,0,0,1,2124.53,1308.81Z"/><path class="cls-71" d="M2110.92,1337.46S2065.66,1318,2037,1315c0,0,47,10.85,72.37,23.63Z"/><rect class="cls-71" x="2037.02" y="1315.01" width="0.33" height="44.7"/></g></g></svg>