<svg xmlns="http://www.w3.org/2000/svg" width="128" height="128" viewBox="0 0 128 128">
  <title>CODE</title>
  <g style="fill:#b32eca;">
    <path d="M121.5,28.75h-7.25V6.5a1.751,1.751,0,0,0-1.75-1.75h-97A1.751,1.751,0,0,0,13.75,6.5V28.75H6.5A1.751,1.751,0,0,0,4.75,30.5v70a1.751,1.751,0,0,0,1.75,1.75H53.25v11.5H47.5a7.759,7.759,0,0,0-7.75,7.75,1.751,1.751,0,0,0,1.75,1.75h45a1.751,1.751,0,0,0,1.75-1.75,7.759,7.759,0,0,0-7.75-7.75H74.75v-11.5H121.5a1.751,1.751,0,0,0,1.75-1.75v-70A1.751,1.751,0,0,0,121.5,28.75Zm-1.75,3.5v54.5h-5.5V32.25ZM17.25,86.75V20.25h93.5v66.5Zm0-78.5h93.5v8.5H17.25Zm-3.5,24v54.5H8.25V32.25Zm70.623,87.5H43.627a4.256,4.256,0,0,1,3.873-2.5h33A4.256,4.256,0,0,1,84.373,119.75Zm-13.123-6H56.75v-11.5h14.5Zm-63-15v-8.5h111.5v8.5Z"/>
    <path d="M106.5,44.25A1.751,1.751,0,0,0,104.75,46v6a1.75,1.75,0,0,0,3.5,0V46A1.751,1.751,0,0,0,106.5,44.25Z"/>
    <path d="M34.5,32.25H105a1.75,1.75,0,0,0,0-3.5H34.5a1.75,1.75,0,0,0,0,3.5Z"/>
    <path d="M34.5,40.25H54.333a1.75,1.75,0,0,0,0-3.5H34.5a1.75,1.75,0,0,0,0,3.5Z"/>
    <path d="M64.333,36.75a1.75,1.75,0,0,0,0,3.5H79.875a1.75,1.75,0,0,0,0-3.5Z"/>
    <path d="M91.521,54.5a1.751,1.751,0,0,0-1.75-1.75H74.75a1.75,1.75,0,0,0,0,3.5H89.771A1.751,1.751,0,0,0,91.521,54.5Z"/>
    <path d="M34.5,48.25H88.833a1.75,1.75,0,0,0,0-3.5H34.5a1.75,1.75,0,0,0,0,3.5Z"/>
    <path d="M34.5,56.25H64.854a1.75,1.75,0,0,0,0-3.5H34.5a1.75,1.75,0,0,0,0,3.5Z"/>
    <path d="M73,70.5a1.751,1.751,0,0,0,1.75,1.75H89.771a1.75,1.75,0,1,0,0-3.5H74.75A1.751,1.751,0,0,0,73,70.5Z"/>
    <path d="M34.5,72.25H64.854a1.75,1.75,0,0,0,0-3.5H34.5a1.75,1.75,0,0,0,0,3.5Z"/>
    <path d="M79.77,60.75H64.85a1.75,1.75,0,1,0,0,3.5H79.77a1.75,1.75,0,0,0,0-3.5Z"/>
    <path d="M105,60.75H89.77a1.75,1.75,0,1,0,0,3.5H105a1.75,1.75,0,0,0,0-3.5Z"/>
    <path d="M34.5,64.25H54.85a1.75,1.75,0,0,0,0-3.5H34.5a1.75,1.75,0,0,0,0,3.5Z"/>
    <path d="M105,76.75H34.5a1.75,1.75,0,0,0,0,3.5H105a1.75,1.75,0,0,0,0-3.5Z"/>
    <circle cx="25" cy="30.5" r="2"/>
    <circle cx="25" cy="38.5" r="2"/>
    <circle cx="25" cy="46.5" r="2"/>
    <circle cx="25" cy="54.5" r="2"/>
    <circle cx="25" cy="62.5" r="2"/>
    <circle cx="25" cy="70.5" r="2"/>
    <circle cx="25" cy="78.5" r="2"/>
    <path d="M68.5,92.75h-9a1.75,1.75,0,0,0,0,3.5h9a1.75,1.75,0,0,0,0-3.5Z"/>
    <circle cx="84.174" cy="12.5" r="2"/>
    <circle cx="92.174" cy="12.5" r="2"/>
    <circle cx="100.174" cy="12.5" r="2"/>
  </g>
</svg>
