<svg xmlns="http://www.w3.org/2000/svg" viewBox="0 0 64 64"><defs><style>.cls-1{fill:#FFF;}</style></defs><g id="Lag_2" data-name="Lag 2"><g id="Layer_1" data-name="Layer 1"><polygon class="cls-1" points="51.61 64 0 64 0 12.99 12.99 0 51.61 0 51.61 5.16 49.55 5.16 49.55 2.06 13.85 2.06 2.06 13.85 2.06 61.94 49.55 61.94 49.55 23.74 51.61 23.74 51.61 64"/><polygon class="cls-1" points="14.45 14.45 1.03 14.45 1.03 12.39 12.39 12.39 12.39 1.03 14.45 1.03 14.45 14.45"/><path class="cls-1" d="M60.9,24.77H23.74a3.09,3.09,0,0,1-3.09-3.09V7.23a3.09,3.09,0,0,1,3.09-3.1H60.9A3.1,3.1,0,0,1,64,7.23V21.68A3.09,3.09,0,0,1,60.9,24.77ZM23.74,6.19a1,1,0,0,0-1,1V21.68a1,1,0,0,0,1,1H60.9a1,1,0,0,0,1-1V7.23a1,1,0,0,0-1-1Z"/><rect class="cls-1" x="4.13" y="16.52" width="2.06" height="2.06"/><rect class="cls-1" x="8.26" y="16.52" width="2.06" height="2.06"/><rect class="cls-1" x="4.13" y="20.65" width="2.06" height="2.06"/><path class="cls-1" d="M29.94,20.65a5.18,5.18,0,0,1-5.17-5.17V13.42a5.17,5.17,0,0,1,10.33,0H33a3.1,3.1,0,1,0-6.19,0v2.06a3.1,3.1,0,1,0,6.19,0H35.1A5.17,5.17,0,0,1,29.94,20.65Z"/><path class="cls-1" d="M43.87,20.65h-3.1A3.62,3.62,0,0,1,37.16,17v-.51h2.07V17a1.54,1.54,0,0,0,1.54,1.55h3.1a1.55,1.55,0,1,0,0-3.1h-3.1a3.61,3.61,0,0,1,0-7.22h3.1a3.61,3.61,0,0,1,3.61,3.61v.52H45.42v-.52a1.56,1.56,0,0,0-1.55-1.55h-3.1a1.55,1.55,0,0,0,0,3.1h3.1a3.62,3.62,0,0,1,0,7.23Z"/><path class="cls-1" d="M56.26,20.65h-3.1A3.62,3.62,0,0,1,49.55,17v-.51h2.06V17a1.55,1.55,0,0,0,1.55,1.55h3.1a1.55,1.55,0,0,0,0-3.1h-3.1a3.61,3.61,0,1,1,0-7.22h3.1a3.61,3.61,0,0,1,3.61,3.61v.52H57.81v-.52a1.56,1.56,0,0,0-1.55-1.55h-3.1a1.55,1.55,0,1,0,0,3.1h3.1a3.62,3.62,0,0,1,0,7.23Z"/><path class="cls-1" d="M47.48,59.87H4.13v-33H47.48ZM6.19,57.81H45.42V28.9H6.19Z"/><path class="cls-1" d="M20.65,55.74a5.72,5.72,0,0,1-5.67-5l-.29-2.33a4.43,4.43,0,0,0-1.24-2.54l-2.52-2.52,2.52-2.51a4.43,4.43,0,0,0,1.24-2.55L15,36a5.72,5.72,0,0,1,5.67-5V33A3.65,3.65,0,0,0,17,36.22l-.29,2.33a6.53,6.53,0,0,1-1.83,3.75l-1.06,1.05,1.06,1.06a6.53,6.53,0,0,1,1.83,3.75L17,50.48a3.65,3.65,0,0,0,3.62,3.2Z"/><path class="cls-1" d="M31,55.74V53.68a3.64,3.64,0,0,0,3.61-3.2l.29-2.32a6.49,6.49,0,0,1,1.84-3.75l1.06-1.06L36.71,42.3a6.49,6.49,0,0,1-1.84-3.75l-.29-2.33A3.64,3.64,0,0,0,31,33V31a5.71,5.71,0,0,1,5.66,5l.29,2.33a4.38,4.38,0,0,0,1.25,2.54l2.52,2.51-2.52,2.52a4.38,4.38,0,0,0-1.25,2.55l-.29,2.32A5.71,5.71,0,0,1,31,55.74Z"/></g></g></svg>