<svg xmlns="http://www.w3.org/2000/svg" width="128" height="128" viewBox="0 0 128 128">
  <title>IDEA</title>
<g style="fill:#2c3e50;">
    <path d="M97.81,54.73A33.946,33.946,0,0,0,87.147,30.081a33.541,33.541,0,0,0-25.306-9.1A34.044,34.044,0,0,0,30.211,53.6a33.433,33.433,0,0,0,9.9,25.047A29.308,29.308,0,0,1,48.7,96.156a4.708,4.708,0,0,0-2.526,7.629,4.651,4.651,0,0,0,0,6.045,4.7,4.7,0,0,0,2.972,7.706,7.737,7.737,0,0,0,7.47,5.714H71.38a7.737,7.737,0,0,0,7.47-5.714,4.7,4.7,0,0,0,2.972-7.706,4.651,4.651,0,0,0,0-6.045,4.707,4.707,0,0,0-2.529-7.629,27.43,27.43,0,0,1,8.183-17.107A33.523,33.523,0,0,0,97.81,54.73ZM78.188,108.058H49.812a1.25,1.25,0,0,1,0-2.5H78.188a1.25,1.25,0,0,1,0,2.5ZM71.38,119.75H56.62a4.227,4.227,0,0,1-3.672-2.147h22.1A4.229,4.229,0,0,1,71.38,119.75Zm6.808-5.647H49.812a1.25,1.25,0,0,1,0-2.5H78.188a1.25,1.25,0,0,1,0,2.5Zm0-12.09H49.812a1.25,1.25,0,1,1,0-2.5H78.188a1.25,1.25,0,1,1,0,2.5ZM57.417,72.335h-1.25a1.25,1.25,0,1,1,1.25-1.25Zm3.5,3.5h6.16V96.013H60.92ZM75.789,96.013H70.58V75.835h1.252a4.75,4.75,0,1,0-4.75-4.75v1.25H60.917v-1.25a4.75,4.75,0,1,0-4.75,4.75H57.42V96.013H52.211a32.773,32.773,0,0,0-9.626-19.842,29.969,29.969,0,0,1-8.876-22.454,30.514,30.514,0,0,1,28.35-29.24A30.305,30.305,0,0,1,85.045,76.531,30.915,30.915,0,0,0,75.789,96.013ZM70.582,72.335v-1.25a1.25,1.25,0,1,1,1.25,1.25Z"/>
    <path d="M91.589,51.2a27.661,27.661,0,0,0-1.264-5.447,1.75,1.75,0,0,0-3.312,1.132,24.176,24.176,0,0,1,1.1,4.756,1.751,1.751,0,0,0,1.735,1.529,1.675,1.675,0,0,0,.222-.014A1.75,1.75,0,0,0,91.589,51.2Z"/>
    <path d="M64,16.25a1.751,1.751,0,0,0,1.75-1.75v-8a1.75,1.75,0,0,0-3.5,0v8A1.751,1.751,0,0,0,64,16.25Z"/>
    <path d="M42.38,20.762a1.75,1.75,0,1,0,3.031-1.75l-4-6.928a1.75,1.75,0,1,0-3.031,1.75Z"/>
    <path d="M21.375,32.12l6.928,4a1.75,1.75,0,0,0,1.75-3.031l-6.928-4a1.75,1.75,0,1,0-1.75,3.031Z"/>
    <path d="M25.541,54.709a1.751,1.751,0,0,0-1.75-1.75h-8a1.75,1.75,0,1,0,0,3.5h8A1.751,1.751,0,0,0,25.541,54.709Z"/>
    <path d="M28.3,73.3l-6.928,4a1.75,1.75,0,1,0,1.75,3.031l6.928-4A1.75,1.75,0,0,0,28.3,73.3Z"/>
    <path d="M83.229,21.4a1.749,1.749,0,0,0,2.391-.641l4-6.928a1.75,1.75,0,1,0-3.031-1.75l-4,6.928A1.751,1.751,0,0,0,83.229,21.4Z"/>
    <path d="M98.824,36.355a1.74,1.74,0,0,0,.873-.235l6.928-4a1.75,1.75,0,1,0-1.75-3.031l-6.928,4a1.751,1.751,0,0,0,.877,3.266Z"/>
    <path d="M112.209,52.959h-8a1.75,1.75,0,0,0,0,3.5h8a1.75,1.75,0,0,0,0-3.5Z"/>
    <path d="M106.625,77.3l-6.928-4a1.75,1.75,0,0,0-1.75,3.031l6.928,4a1.75,1.75,0,1,0,1.75-3.031Z"/>
  </g>
</svg>
