<svg xmlns="http://www.w3.org/2000/svg" viewBox="0 0 64 64"><defs><style>.cls-1{fill:#20176A;}</style></defs><g id="Lag_2" data-name="Lag 2"><g id="Layer_1" data-name="Layer 1"><polygon class="cls-1" points="51.61 64 0 64 0 12.99 12.99 0 51.61 0 51.61 5.16 49.55 5.16 49.55 2.06 13.85 2.06 2.06 13.85 2.06 61.94 49.55 61.94 49.55 23.74 51.61 23.74 51.61 64"/><polygon class="cls-1" points="14.45 14.45 1.03 14.45 1.03 12.39 12.39 12.39 12.39 1.03 14.45 1.03 14.45 14.45"/><path class="cls-1" d="M60.9,24.77H23.74a3.09,3.09,0,0,1-3.09-3.09V7.23a3.09,3.09,0,0,1,3.09-3.1H60.9A3.1,3.1,0,0,1,64,7.23V21.68A3.09,3.09,0,0,1,60.9,24.77ZM23.74,6.19a1,1,0,0,0-1,1V21.68a1,1,0,0,0,1,1H60.9a1,1,0,0,0,1-1V7.23a1,1,0,0,0-1-1Z"/><rect class="cls-1" x="4.13" y="16.52" width="2.06" height="2.06"/><rect class="cls-1" x="8.26" y="16.52" width="2.06" height="2.06"/><rect class="cls-1" x="4.13" y="20.65" width="2.06" height="2.06"/><path class="cls-1" d="M50.06,20.65H47A3.63,3.63,0,0,1,43.35,17v-.51h2.07V17A1.54,1.54,0,0,0,47,18.58h3.09a1.55,1.55,0,0,0,0-3.1H47a3.61,3.61,0,1,1,0-7.22h3.09a3.62,3.62,0,0,1,3.62,3.61v.52H51.61v-.52a1.55,1.55,0,0,0-1.55-1.55H47a1.55,1.55,0,1,0,0,3.1h3.09a3.62,3.62,0,1,1,0,7.23Z"/><path class="cls-1" d="M47.48,59.87H4.13v-33H47.48ZM6.19,57.81H45.42V28.9H6.19Z"/><path class="cls-1" d="M36.13,20.65A5.17,5.17,0,0,1,31,15.48H33a3.1,3.1,0,1,0,6.2,0V8.26h2.06v7.22A5.17,5.17,0,0,1,36.13,20.65Z"/><path class="cls-1" d="M29.94,55.74H15.48a4.14,4.14,0,0,1-4.13-4.13V47.48H27.87v4.13a2.07,2.07,0,1,0,4.13,0V35.1a4.13,4.13,0,1,1,8.26,0v4.13h-6.2V51.61A4.13,4.13,0,0,1,29.94,55.74ZM13.42,49.55v2.06a2.07,2.07,0,0,0,2.06,2.07H26.36a4.16,4.16,0,0,1-.55-2.07V49.55ZM34.06,37.16h4.13V35.1a2.07,2.07,0,1,0-4.13,0Z"/><path class="cls-1" d="M19.61,48.52H17.55V35.1A4.13,4.13,0,0,1,21.68,31H36.13V33H21.68a2.07,2.07,0,0,0-2.07,2.07Z"/><rect class="cls-1" x="21.68" y="35.1" width="8.26" height="2.06"/><rect class="cls-1" x="21.68" y="39.23" width="8.26" height="2.06"/><rect class="cls-1" x="21.68" y="43.35" width="4.13" height="2.06"/><rect class="cls-1" x="27.87" y="43.35" width="2.06" height="2.06"/></g></g></svg>