<svg xmlns="http://www.w3.org/2000/svg" width="128" height="128" viewBox="0 0 128 128">
  <title>MICROSCOPE</title>
<g style="fill:#2c3e50;">
    <path d="M80.538,48.324A1.75,1.75,0,1,0,83.77,46.98L81.8,42.232a1.75,1.75,0,0,0-3.232,1.344Z"/>
    <path d="M63.334,29.154a4.75,4.75,0,1,0,4.75,4.75A4.756,4.756,0,0,0,63.334,29.154Zm0,6a1.25,1.25,0,1,1,1.25-1.25A1.251,1.251,0,0,1,63.334,35.154Z"/>
    <path d="M108.4,107.956V106.5a4.756,4.756,0,0,0-4.75-4.75H49.585V97.5a1.749,1.749,0,0,0-1.75-1.75H46.59V90.621a6.23,6.23,0,0,0,2.794-1.371H103.81a1.75,1.75,0,0,0,1.75-1.75v-6a1.75,1.75,0,0,0-1.75-1.75H49.388a6.235,6.235,0,0,0-2.8-1.375V54.2a12.5,12.5,0,0,1,9.681-12.212,10.617,10.617,0,0,0,9.619,2.347l5.292,12.748-1.154.48a1.751,1.751,0,0,0-.945,2.288l2.3,5.541a1.751,1.751,0,0,0,2.288.944L77.6,64.707l1.629,3.924A1.752,1.752,0,0,0,80.84,69.71a1.763,1.763,0,0,0,.672-.134l11.09-4.61a1.75,1.75,0,0,0,.944-2.287l-1.628-3.923,3.918-1.628a1.75,1.75,0,0,0,.945-2.287l-2.3-5.541a1.753,1.753,0,0,0-2.288-.946l-1.156.481L74.516,9.069a1.75,1.75,0,0,0-2.287-.945L68.305,9.753,66.676,5.829a1.75,1.75,0,0,0-2.287-.945l-5.54,2.3A1.749,1.749,0,0,0,57.9,9.471L59.533,13.4l-3.924,1.628a1.752,1.752,0,0,0-.945,2.288l3.084,7.426a10.811,10.811,0,0,0-2.069,1.633A27.936,27.936,0,0,0,31.09,54.2V95.75H29.835a1.75,1.75,0,0,0-1.75,1.75v4.25H24.35a4.756,4.756,0,0,0-4.75,4.75v1.456a7.758,7.758,0,0,0-6,7.544v6a1.75,1.75,0,0,0,1.75,1.75h97.308a1.75,1.75,0,0,0,1.75-1.75v-6A7.758,7.758,0,0,0,108.4,107.956ZM45.334,81.748a2.75,2.75,0,1,1-2.75,2.75A2.752,2.752,0,0,1,45.334,81.748Zm56.726,4h-50.6a6.288,6.288,0,0,0,0-2.5h50.6ZM56.084,33.9a7.25,7.25,0,1,1,7.25,7.25A7.258,7.258,0,0,1,56.084,33.9Zm33.559,28.5-7.858,3.267-.958-2.308L88.685,60.1Zm3.234-7.838L73.946,62.433l-.959-2.31,18.931-7.865ZM61.807,9.745l2.308-.958.958,2.308-2.308.958Zm-3.24,7.84,13.388-5.558L87.8,50.178,74.414,55.74,69.108,42.958A10.735,10.735,0,0,0,60.99,23.42ZM34.59,54.2A24.434,24.434,0,0,1,53.182,30.4a10.662,10.662,0,0,0,.707,8.632A15.983,15.983,0,0,0,43.09,54.2V78.672a6.239,6.239,0,0,0,0,11.652V95.75h-8.5ZM31.585,99.25h14.5v2.5h-14.5Zm-7.235,6h79.3a1.252,1.252,0,0,1,1.25,1.25v1.25H23.1V106.5A1.252,1.252,0,0,1,24.35,105.25Zm86.554,14.5H17.1V115.5a4.255,4.255,0,0,1,4.25-4.25h85.308a4.255,4.255,0,0,1,4.25,4.25Z"/>
  </g>
</svg>
