<svg xmlns="http://www.w3.org/2000/svg" viewBox="0 0 64 64"><defs><style>.cls-1{fill:#20176A;}</style></defs><g id="Lag_2" data-name="Lag 2"><g id="Layer_1" data-name="Layer 1"><polygon class="cls-1" points="51.61 64 0 64 0 12.99 12.99 0 51.61 0 51.61 5.16 49.55 5.16 49.55 2.06 13.85 2.06 2.06 13.85 2.06 61.94 49.55 61.94 49.55 23.74 51.61 23.74 51.61 64"/><polygon class="cls-1" points="14.45 14.45 1.03 14.45 1.03 12.39 12.39 12.39 12.39 1.03 14.45 1.03 14.45 14.45"/><path class="cls-1" d="M60.9,24.77H23.74a3.09,3.09,0,0,1-3.09-3.09V7.23a3.09,3.09,0,0,1,3.09-3.1H60.9A3.1,3.1,0,0,1,64,7.23V21.68A3.09,3.09,0,0,1,60.9,24.77ZM23.74,6.19a1,1,0,0,0-1,1V21.68a1,1,0,0,0,1,1H60.9a1,1,0,0,0,1-1V7.23a1,1,0,0,0-1-1Z"/><rect class="cls-1" x="38.19" y="13.42" width="8.26" height="2.06"/><rect class="cls-1" x="37.16" y="8.26" width="2.06" height="12.39"/><rect class="cls-1" x="45.42" y="8.26" width="2.06" height="12.39"/><path class="cls-1" d="M47.48,59.87H4.13v-33H47.48ZM6.19,57.81H45.42V28.9H6.19Z"/><rect class="cls-1" x="4.13" y="16.52" width="2.06" height="2.06"/><rect class="cls-1" x="8.26" y="16.52" width="2.06" height="2.06"/><rect class="cls-1" x="4.13" y="20.65" width="2.06" height="2.06"/><path class="cls-1" d="M31.48,15.48H24.77V8.26h6.71a3.61,3.61,0,1,1,0,7.22Zm-4.64-2.06h4.64a1.55,1.55,0,1,0,0-3.1H26.84Z"/><rect class="cls-1" x="24.77" y="14.45" width="2.06" height="6.19"/><path class="cls-1" d="M56.26,15.48H49.55V8.26h6.71a3.61,3.61,0,0,1,0,7.22Zm-4.65-2.06h4.65a1.55,1.55,0,1,0,0-3.1H51.61Z"/><rect class="cls-1" x="49.55" y="14.45" width="2.06" height="6.19"/><polygon class="cls-1" points="17.78 55.36 7.96 43.35 17.78 31.35 19.38 32.65 10.62 43.35 19.38 54.06 17.78 55.36"/><polygon class="cls-1" points="33.83 55.36 32.23 54.06 40.99 43.35 32.23 32.65 33.83 31.35 43.66 43.35 33.83 55.36"/><rect class="cls-1" x="13.72" y="42.32" width="24.16" height="2.06" transform="translate(-23.76 52.78) rotate(-70.01)"/></g></g></svg>